<?xml version="1.0" encoding="utf-8"?>
<!-- Generator: Adobe Illustrator 19.1.1, SVG Export Plug-In . SVG Version: 6.00 Build 0)  -->
<svg version="1.1" id="Слой_1" xmlns="http://www.w3.org/2000/svg" xmlns:xlink="http://www.w3.org/1999/xlink" x="0px" y="0px"
	 viewBox="0 0 208 26" style="enable-background:new 0 0 208 26;" xml:space="preserve">
<style type="text/css">
	.st0{fill:none;}
</style>
<g>
	<path d="M21.1,4.8c0,0.2-0.2,0.9-0.7,2c-0.5,1-1,3-1.5,5.8s-0.8,5.1-0.8,6.8l0.2,4.6c0,0.1-0.1,0.3-0.3,0.4s-0.4,0.2-0.5,0.2h-0.1
		c-0.8,0-1.3-0.4-1.5-1.3l0-0.5c0-0.6,0-2,0.1-4.2c0-1,0.1-1.8,0.1-2.4c0-0.2,0-0.3-0.1-0.4c-0.1,0-0.1-0.1-0.2-0.1
		c-0.1,0-1.2,0.9-3.1,2.7c-1,0.9-2.1,1.9-3.1,2.8c-1.9,1.6-3.2,2.8-3.8,3.6c-0.1,0.1-0.2,0.2-0.4,0.3S5,25.2,4.9,25.2h0
		c-0.7,0-1.2-0.5-1.4-1.6v0c0-0.2,0.3-0.6,0.9-1.1s0.9-0.8,1-0.8c0.3-0.3,0.9-0.7,1.9-1.4c1.2-0.8,2.3-1.7,3.3-2.7s1.6-1.5,1.7-1.6
		c0-0.1-0.3-0.1-0.7-0.1c-0.1,0-0.6,0-1.3,0s-1.4-0.1-2-0.3s-1.1-0.6-1.6-0.9s-0.8-0.8-0.9-1.3s-0.3-1-0.3-1.5
		c0-1.7,0.9-3.2,2.7-4.6s3.7-2.3,5.8-2.7s3.4-0.7,4-0.7c0.1,0,0.2,0,0.4,0.1c0.2,0.1,0.3,0.1,0.4,0.1c0.1,0,0.2,0,0.3-0.1
		s0.3-0.1,0.4-0.1c0.3,0,0.6,0.1,1,0.3S21,4.5,21.1,4.8L21.1,4.8z M18.1,6.6c-0.1-0.5-0.4-0.7-0.8-0.7c-1,0-2.3,0.2-3.9,0.7
		s-2.9,1.2-4,2.1s-1.7,2-1.7,3.2c0,0.6,0.3,1,1,1.4s1.6,0.6,2.8,0.6s2.2-0.1,3.1-0.2s1.5-0.4,1.7-0.7c0.3-0.3,0.5-0.7,0.6-1.2
		L18.1,6.6z"/>
	<path d="M23.6,21.4l0-0.3c-0.1-0.9,0.2-1.8,0.8-2.7s2.2-2,4.6-3.3c1.6-0.8,2.4-1.5,2.4-2.2c0-0.3-0.1-0.6-0.4-0.8s-0.5-0.3-0.7-0.3
		c-0.6,0-1.9,0.4-3.7,1.3c-0.1,0.1-0.2,0.1-0.3,0.1c-0.7,0-1-0.2-1-0.7c0-0.8,0.7-1.5,2.1-2s2.6-0.8,3.6-0.8c0.6,0,1.3,0.3,2,0.8
		s1,1.2,1,2c0,0.7-0.2,1.4-0.7,2s-1.6,1.5-3.4,2.5c-1.5,0.8-2.5,1.5-3,2s-0.8,1.1-0.8,1.8c0,0.5,0.2,0.8,0.7,1s0.8,0.2,1,0.2
		c1.6,0,3-0.3,4.3-1c0.4-0.2,0.8-0.3,1-0.3c0.4,0,0.7,0.2,0.7,0.7c0,0.7-0.6,1.4-1.8,1.9c-1.2,0.5-2.7,0.7-4.6,0.7
		c-0.9,0-1.7-0.3-2.5-0.8S23.7,22.2,23.6,21.4z"/>
	<path d="M40.2,24.2c-1.2,0-2.1-0.4-2.9-1.3s-1.1-2-1.1-3.3c0-2.2,0.7-4.3,2.2-6.5s3.2-3.2,5.3-3.2c1.4,0,2.5,0.5,3.3,1.6
		s1.3,2.3,1.3,3.7c0,2.2-0.9,4.2-2.6,6.1S42.1,24.2,40.2,24.2z M38.5,19.3c0,0.9,0.2,1.6,0.5,2.1s0.8,0.8,1.4,0.8
		c1.3,0,2.5-0.7,3.8-2.1s1.9-2.9,1.9-4.6c0-1-0.2-1.9-0.7-2.5s-1.1-1-2-1c-1.4,0-2.5,0.8-3.5,2.5S38.5,17.8,38.5,19.3z"/>
	<path d="M60.9,8.8c-0.3-1.3-0.7-2.2-1.1-2.8s-1-0.9-1.8-1.2s-1.4-0.4-2-0.4c-0.2,0-0.6,0.1-1,0.3s-0.8,0.3-1,0.5
		c-0.3,0.2-0.6,0.3-0.9,0.3c-0.3,0-0.5-0.2-0.5-0.5c0-0.4,0.3-0.9,0.8-1.5s1.5-1,2.9-1h0.5c1.4,0,2.6,0.4,3.7,1.1s1.8,1.8,2.3,3.1
		s0.7,3.2,0.7,5.4c0,1.5-0.5,3.4-1.5,5.6s-2.2,3.9-3.7,5s-3.1,1.7-4.8,1.7c-0.6,0-1.2-0.4-1.7-1.1s-0.8-1.6-0.8-2.6
		c0-1.9,0.4-3.6,1.3-5.1S54,12.9,55,12s2.5-1.7,4.3-2.2c0.6-0.2,1-0.3,1.2-0.4S60.9,9.1,60.9,8.8z M61.2,11.4c-2,0.4-3.5,1-4.5,1.9
		c-2.4,2.2-3.5,4.7-3.5,7.4c0,0.4,0.1,0.7,0.2,1s0.3,0.5,0.4,0.5c0.6,0,1.2-0.1,1.7-0.3s1.1-0.7,1.9-1.4s1.4-1.6,2-2.6s1-2,1.3-3
		s0.4-1.7,0.4-2.2S61.2,11.7,61.2,11.4z"/>
	<path d="M74.3,15.3c0.1-0.2,0.2-1.2,0.4-3.2c0.2-1.6,0.6-2.3,1.5-2.3c0.7,0,1,0.3,1,1c0,0.2-0.1,0.5-0.2,1c-0.7,2.7-1,5-1,6.8
		c0,2,0.3,3.3,1,3.8c0.3,0.3,0.5,0.6,0.5,0.8c0,0.2-0.2,0.5-0.5,0.6s-0.7,0.3-0.9,0.3c-1.3,0-2-2-2-6.1c0-0.3-0.1-0.4-0.3-0.4
		c-0.8,0-1.8,0-2.9,0.1s-2,0.2-2.5,0.4s-0.8,0.3-0.9,0.4s-0.2,0.4-0.3,1s-0.1,1.1-0.1,1.6v1.6c0,0.9-0.4,1.4-1.2,1.4
		c-0.7,0-1-0.5-1-1.4c0-0.6,0.1-1.3,0.2-2.3c0.3-1.7,0.6-4.6,0.8-8.7c0-0.5,0.1-0.9,0.1-1s0.2-0.3,0.5-0.5S67,10,67.3,10
		c0.6,0,0.9,0.2,0.9,0.7c0,0.1-0.1,0.7-0.3,1.9c-0.2,1.2-0.3,2.1-0.3,2.8c0,0.5,0.2,0.7,0.5,0.7c0.6,0,1.8-0.1,3.5-0.3
		S74.2,15.4,74.3,15.3z"/>
	<path d="M88.8,18.9c-1.2,1.6-2.4,2.8-3.5,3.6s-2.2,1.2-3.2,1.2c-0.7,0-1.2-0.3-1.7-0.8s-0.7-1.3-0.7-2.1c0-2.2,1-4.6,3-7.2
		s4-3.9,5.9-3.9c0.7,0,1.2,0.4,1.6,1.2c0.1,0.3,0.3,0.4,0.5,0.4c0.7,0,1,0.3,1,0.8c0,0.3,0,0.6-0.1,1.1c-0.5,2.5-0.7,4.3-0.7,5.3
		c0,2,0.4,3.3,1.2,3.7c0.4,0.2,0.6,0.5,0.6,0.7c0,0.3-0.2,0.5-0.5,0.8s-0.7,0.4-1.1,0.4c-0.7,0-1.2-0.4-1.6-1.3S88.8,20.6,88.8,18.9
		z M88,11.8c-1.1,0-2.4,1-3.9,3.1s-2.2,3.8-2.2,5.2c0,1,0.3,1.5,1,1.5c0.9,0,2.2-0.9,3.9-2.8s2.5-3.6,2.5-5.2
		C89.2,12.4,88.8,11.8,88,11.8z"/>
	<path d="M106.9,10.3c0,0.2-0.2,0.7-0.5,1.5c-0.3,0.6-0.6,1.9-0.9,3.7s-0.5,3.4-0.5,4.5c0,0.5,0.1,1.2,0.2,2c0,0.4,0.1,0.7,0.1,1
		c0,0.1-0.1,0.3-0.4,0.4s-0.5,0.2-0.7,0.2c-0.5,0-0.9-0.1-1-0.4S103,22.7,103,22l0.1-4.1c-1.3,1.1-2.2,1.8-2.7,2.3
		c-0.6,0.6-1,0.9-1.3,1.1c-1.2,0.9-2,1.7-2.5,2.4c-0.1,0.1-0.2,0.2-0.4,0.3s-0.3,0.2-0.4,0.2c-0.4,0-0.7-0.2-0.9-0.5
		s-0.3-0.6-0.3-0.8c0-0.2,0.4-0.7,1.3-1.4c0.2-0.2,0.5-0.4,0.7-0.5c1.3-0.9,2.5-1.9,3.7-3l-1.4,0c-0.5,0-1-0.2-1.6-0.6
		s-1-0.7-1.2-1.2s-0.2-0.8-0.2-1.2c0-1.2,0.7-2.3,2-3.3s2.9-1.7,4.7-2c0.2,0,0.6-0.1,1.1-0.2c0.5-0.1,0.8-0.1,0.9-0.1
		c0.1,0,0.3,0,0.6,0.1l0.4-0.1c0.3,0,0.5,0.1,0.8,0.3S106.9,10,106.9,10.3z M104.4,11.5c-0.1-0.2-0.2-0.3-0.3-0.3
		c-1.2,0-2.5,0.4-4,1.1s-2.2,1.6-2.2,2.7c0,0.3,0.2,0.6,0.6,0.8s0.9,0.3,1.6,0.3c1.3,0,2.2-0.1,2.9-0.4c0.2-0.1,0.4-0.4,0.5-0.8
		L104.4,11.5z"/>
	<path d="M129.4,8.8c-0.3-1.3-0.7-2.2-1.1-2.8c-0.4-0.5-1-0.9-1.8-1.2s-1.4-0.4-2-0.4c-0.2,0-0.6,0.1-1,0.3s-0.8,0.3-1,0.5
		c-0.3,0.2-0.6,0.3-0.9,0.3c-0.3,0-0.5-0.2-0.5-0.5c0-0.4,0.3-0.9,0.8-1.5s1.5-1,2.9-1h0.5c1.4,0,2.6,0.4,3.7,1.1
		c1.1,0.7,1.8,1.8,2.3,3.1s0.7,3.2,0.7,5.4c0,1.5-0.5,3.4-1.5,5.6s-2.2,3.9-3.7,5c-1.5,1.1-3.1,1.7-4.8,1.7c-0.6,0-1.2-0.4-1.7-1.1
		s-0.8-1.6-0.8-2.6c0-1.9,0.4-3.6,1.3-5.1s1.8-2.7,2.8-3.6s2.5-1.7,4.3-2.2c0.6-0.2,1-0.3,1.2-0.4S129.4,9.1,129.4,8.8z M129.7,11.4
		c-2,0.4-3.5,1-4.5,1.9c-2.4,2.2-3.5,4.7-3.5,7.4c0,0.4,0.1,0.7,0.2,1s0.3,0.5,0.4,0.5c0.6,0,1.2-0.1,1.7-0.3s1.1-0.7,1.9-1.4
		s1.4-1.6,2-2.6c0.6-1,1-2,1.3-3s0.4-1.7,0.4-2.2S129.7,11.7,129.7,11.4z"/>
	<path d="M137.1,24.2c-1.2,0-2.1-0.4-2.9-1.3s-1.1-2-1.1-3.3c0-2.2,0.7-4.3,2.2-6.5s3.2-3.2,5.3-3.2c1.4,0,2.5,0.5,3.3,1.6
		s1.3,2.3,1.3,3.7c0,2.2-0.9,4.2-2.6,6.1S139,24.2,137.1,24.2z M135.4,19.3c0,0.9,0.2,1.6,0.5,2.1s0.8,0.8,1.4,0.8
		c1.3,0,2.5-0.7,3.8-2.1s1.9-2.9,1.9-4.6c0-1-0.2-1.9-0.7-2.5s-1.1-1-2-1c-1.4,0-2.5,0.8-3.5,2.5S135.4,17.8,135.4,19.3z"/>
	<path d="M155.2,13.2c-0.2,0-0.4,0.2-0.6,0.6c-1.8,3.5-3.1,5.9-4,7.1c-0.1,0.1-0.2,0.3-0.3,0.5c-1.1,1.9-1.8,2.8-2.3,2.8
		c-0.7,0-1-0.3-1-1c0-0.6,0.4-1.4,1.2-2.3c0.8-0.9,1.8-2.5,3.1-4.8s2.3-4.3,3.1-6c0.2-0.3,0.4-0.5,0.7-0.5c0.1,0,0.4,0.1,0.7,0.2
		s0.5,0.2,0.6,0.4s0.3,0.9,0.6,2.4c1,5.2,2.1,8.3,3.3,9.2c0.3,0.2,0.4,0.4,0.5,0.5s0.1,0.2,0.1,0.3c0,0.3-0.1,0.5-0.3,0.7
		s-0.3,0.4-0.5,0.4s-0.5,0.1-1,0.1c-0.2,0-0.6-0.4-1.2-1.3s-1.4-3.3-2.3-7.2C155.6,14.3,155.4,13.6,155.2,13.2z"/>
	<path d="M172.6,18c-1.1,1.8-2.2,3.2-3.3,4.2s-2.2,1.5-3.2,1.5c-0.6,0-1.1-0.3-1.7-1s-0.9-1.7-0.9-3c0-1.1,0.3-2.7,0.8-4.9
		c0.4-1.8,0.7-3.1,0.7-3.8c0.2-0.5,0.6-0.8,1.2-0.8c0.4,0,0.6,0.1,0.9,0.4s0.3,0.5,0.3,0.8c0,0.6-0.2,1.4-0.6,2.5
		c-0.8,2.1-1.2,3.9-1.2,5.5c0,1.4,0.3,2.1,1,2.1c0.8,0,1.9-0.7,3.1-2.1s2.4-3.3,3.3-5.8c0.4-1,0.6-1.6,0.9-1.9s0.5-0.5,0.9-0.5
		c0.6,0,0.9,0.4,0.9,1.1c0,0.1-0.1,0.4-0.2,0.9c-0.5,1.9-0.8,3.6-0.8,5.3c0,2,0.3,3.3,1,3.8c0.3,0.3,0.5,0.6,0.5,0.8
		c0,0.2-0.2,0.5-0.5,0.6s-0.7,0.3-0.9,0.3c-0.6,0-1.1-0.4-1.4-1.3s-0.5-2.2-0.5-3.9v-0.4C172.6,18.3,172.6,18.2,172.6,18z"/>
	<path d="M188.8,15.3c0.1-0.2,0.2-1.2,0.4-3.2c0.2-1.6,0.6-2.3,1.5-2.3c0.7,0,1,0.3,1,1c0,0.2-0.1,0.5-0.2,1c-0.7,2.7-1,5-1,6.8
		c0,2,0.3,3.3,1,3.8c0.3,0.3,0.5,0.6,0.5,0.8c0,0.2-0.2,0.5-0.5,0.6s-0.7,0.3-0.9,0.3c-1.3,0-2-2-2-6.1c0-0.3-0.1-0.4-0.3-0.4
		c-0.8,0-1.8,0-2.9,0.1s-2,0.2-2.5,0.4s-0.8,0.3-0.9,0.4s-0.2,0.4-0.3,1s-0.1,1.1-0.1,1.6v1.6c0,0.9-0.4,1.4-1.2,1.4
		c-0.7,0-1-0.5-1-1.4c0-0.6,0.1-1.3,0.2-2.3c0.3-1.7,0.6-4.6,0.8-8.7c0-0.5,0.1-0.9,0.1-1s0.2-0.3,0.5-0.5s0.5-0.3,0.8-0.3
		c0.6,0,0.9,0.2,0.9,0.7c0,0.1-0.1,0.7-0.3,1.9c-0.2,1.2-0.3,2.1-0.3,2.8c0,0.5,0.2,0.7,0.5,0.7c0.6,0,1.8-0.1,3.5-0.3
		S188.8,15.4,188.8,15.3z"/>
	<path d="M203.4,18.9c-1.2,1.6-2.4,2.8-3.5,3.6s-2.2,1.2-3.2,1.2c-0.7,0-1.2-0.3-1.7-0.8s-0.7-1.3-0.7-2.1c0-2.2,1-4.6,3-7.2
		s4-3.9,5.9-3.9c0.7,0,1.2,0.4,1.6,1.2c0.1,0.3,0.3,0.4,0.5,0.4c0.7,0,1,0.3,1,0.8c0,0.3,0,0.6-0.1,1.1c-0.5,2.5-0.7,4.3-0.7,5.3
		c0,2,0.4,3.3,1.2,3.7c0.4,0.2,0.6,0.5,0.6,0.7c0,0.3-0.2,0.5-0.5,0.8s-0.7,0.4-1.1,0.4c-0.7,0-1.2-0.4-1.6-1.3
		S203.4,20.6,203.4,18.9z M202.6,11.8c-1.1,0-2.4,1-3.9,3.1s-2.2,3.8-2.2,5.2c0,1,0.3,1.5,1,1.5c0.9,0,2.2-0.9,3.9-2.8
		s2.5-3.6,2.5-5.2C203.8,12.4,203.4,11.8,202.6,11.8z"/>
</g>
</svg>
