<?xml version="1.0" encoding="utf-8"?>
<!-- Generator: Adobe Illustrator 19.1.1, SVG Export Plug-In . SVG Version: 6.00 Build 0)  -->
<svg version="1.1" id="Слой_1" xmlns="http://www.w3.org/2000/svg" xmlns:xlink="http://www.w3.org/1999/xlink" x="0px" y="0px"
	 viewBox="0 0 170 32" style="enable-background:new 0 0 170 32;" xml:space="preserve">
<style type="text/css">
	.st0{fill:none;}
</style>
<g>
	<path d="M9.7,16h0.9c1.6,0,2.7-0.1,3.5-0.2c0.4-0.1,0.7-0.1,1.1-0.1c0.2,0,0.5,0.1,1,0.3s0.8,0.4,0.9,0.5s0.1,0.3,0.1,0.5
		c0,0.3-0.1,0.5-0.2,0.7s-0.4,0.2-0.8,0.2c-0.2,0-0.4-0.1-0.8-0.2s-0.6-0.2-0.9-0.2c-0.1,0-0.4,0-0.9,0.1c-0.3,0-0.8,0-1.5-0.1
		c-0.6-0.1-1-0.1-1.3-0.1c-0.4,0-1,0-1.8,0.1s-1.4,0.1-1.8,0.1s-0.7,0-1-0.1S6,17.2,6,16.9c0-0.1,0.1-0.3,0.2-0.5s0.5-0.3,1.2-0.4
		s1.1-0.2,1.4-0.2L9.7,16z"/>
	<path d="M39.2,18.8c-1.1,1.8-2.2,3.2-3.3,4.2s-2.2,1.5-3.2,1.5c-0.6,0-1.1-0.3-1.7-1s-0.9-1.7-0.9-3c0-1.1,0.3-2.7,0.8-4.9
		c0.4-1.8,0.7-3.1,0.7-3.8c0.2-0.5,0.6-0.8,1.2-0.8c0.4,0,0.6,0.1,0.9,0.4s0.3,0.5,0.3,0.8c0,0.6-0.2,1.4-0.6,2.5
		c-0.8,2.1-1.2,3.9-1.2,5.5c0,1.4,0.3,2.1,1,2.1c0.8,0,1.9-0.7,3.1-2.1s2.4-3.3,3.3-5.8c0.4-1,0.6-1.6,0.9-1.9s0.5-0.5,0.9-0.5
		c0.6,0,0.9,0.4,0.9,1.1c0,0.1-0.1,0.4-0.2,0.9c-0.5,1.9-0.8,3.6-0.8,5.3c0,2,0.3,3.3,1,3.8c0.3,0.3,0.5,0.6,0.5,0.8
		c0,0.2-0.2,0.5-0.5,0.6s-0.7,0.3-0.9,0.3c-0.6,0-1.1-0.4-1.4-1.3s-0.5-2.2-0.5-3.9v-0.4C39.2,19,39.2,18.9,39.2,18.8z"/>
	<path d="M55.5,16c0.1-0.2,0.2-1.2,0.4-3.2c0.2-1.6,0.6-2.3,1.5-2.3c0.7,0,1,0.3,1,1c0,0.2-0.1,0.5-0.2,1c-0.7,2.7-1,5-1,6.8
		c0,2,0.3,3.3,1,3.8c0.3,0.3,0.5,0.6,0.5,0.8c0,0.2-0.2,0.5-0.5,0.6s-0.7,0.3-0.9,0.3c-1.3,0-2-2-2-6.1c0-0.3-0.1-0.4-0.3-0.4
		c-0.8,0-1.8,0-2.9,0.1s-2,0.2-2.5,0.4s-0.8,0.3-0.9,0.4s-0.2,0.4-0.3,1s-0.1,1.1-0.1,1.6v1.6c0,0.9-0.4,1.4-1.2,1.4
		c-0.7,0-1-0.5-1-1.4c0-0.6,0.1-1.3,0.2-2.3c0.3-1.7,0.6-4.6,0.8-8.7c0-0.5,0.1-0.9,0.1-1s0.2-0.3,0.5-0.5s0.5-0.3,0.8-0.3
		c0.6,0,0.9,0.2,0.9,0.7c0,0.1-0.1,0.7-0.3,1.9c-0.2,1.2-0.3,2.1-0.3,2.8c0,0.5,0.2,0.7,0.5,0.7c0.6,0,1.8-0.1,3.5-0.3
		S55.4,16.1,55.5,16z"/>
	<path d="M70.8,16c0.1-0.2,0.2-1.2,0.4-3.2c0.2-1.6,0.6-2.3,1.5-2.3c0.7,0,1,0.3,1,1c0,0.2-0.1,0.5-0.2,1c-0.7,2.7-1,5-1,6.8
		c0,2,0.3,3.3,1,3.8c0.3,0.3,0.5,0.6,0.5,0.8c0,0.2-0.2,0.5-0.5,0.6s-0.7,0.3-0.9,0.3c-1.3,0-2-2-2-6.1c0-0.3-0.1-0.4-0.3-0.4
		c-0.8,0-1.8,0-2.9,0.1c-1.2,0.1-2,0.2-2.5,0.4s-0.8,0.3-0.9,0.4s-0.2,0.4-0.3,1s-0.1,1.1-0.1,1.6v1.6c0,0.9-0.4,1.4-1.2,1.4
		c-0.7,0-1-0.5-1-1.4c0-0.6,0.1-1.3,0.2-2.3c0.3-1.7,0.6-4.6,0.8-8.7c0-0.5,0.1-0.9,0.1-1c0.1-0.1,0.2-0.3,0.5-0.5
		c0.3-0.2,0.5-0.3,0.8-0.3c0.6,0,0.9,0.2,0.9,0.7c0,0.1-0.1,0.7-0.3,1.9c-0.2,1.2-0.3,2.1-0.3,2.8c0,0.5,0.2,0.7,0.5,0.7
		c0.6,0,1.8-0.1,3.5-0.3C69.8,16.3,70.7,16.1,70.8,16z"/>
	<path d="M80.4,24.9c-1.2,0-2.1-0.4-2.9-1.3c-0.8-0.9-1.1-2-1.1-3.3c0-2.2,0.7-4.3,2.2-6.5c1.5-2.1,3.2-3.2,5.3-3.2
		c1.4,0,2.5,0.5,3.3,1.6c0.8,1,1.3,2.3,1.3,3.7c0,2.2-0.9,4.2-2.6,6.1S82.3,24.9,80.4,24.9z M78.7,20c0,0.9,0.2,1.6,0.5,2.1
		c0.4,0.5,0.8,0.8,1.4,0.8c1.3,0,2.5-0.7,3.8-2.1s1.9-2.9,1.9-4.6c0-1-0.2-1.9-0.7-2.5c-0.5-0.6-1.1-1-2-1c-1.4,0-2.5,0.8-3.5,2.5
		S78.7,18.5,78.7,20z"/>
	<path d="M99.3,11.3c1.9,0.8,2.9,2.6,2.9,5.5c0,2.2-0.7,4.1-2,5.7c-1.4,1.6-2.8,2.5-4.4,2.5c-1.4,0-2.5-0.6-3.3-1.7
		c-0.8-1.1-1.2-2.8-1.2-5c0-2.6,0.5-5.3,1.4-8s2.1-4.7,3.5-6.1s2.8-2.1,4.2-2.1c0.9,0,1.5,0.3,2.1,0.8s0.8,1.3,0.8,2.3
		c0,0.8-0.3,1.7-1,2.8C101.3,9.3,100.4,10.4,99.3,11.3z M99.8,17.2c0-1.3-0.2-2.3-0.7-3c-0.5-0.8-1-1.2-1.5-1.2
		c-0.2,0-1.1,0.7-2.8,2c-0.4,0.3-0.9,0.7-1.3,0.9c-0.1,0.7-0.2,1.5-0.2,2.4c0,1.5,0.2,2.7,0.7,3.5c0.5,0.8,1.1,1.2,1.9,1.2
		c1.1,0,2.1-0.6,2.8-1.8S99.8,18.7,99.8,17.2L99.8,17.2z M93.8,13.6c3.3-2.5,5.3-4.3,6-5.4c0.8-1.1,1.2-1.9,1.2-2.5
		c0-1-0.4-1.5-1.2-1.5c-1.1,0-2.2,0.8-3.3,2.5C95.3,8.4,94.4,10.7,93.8,13.6z"/>
	<path d="M113.3,19.7c-1.2,1.6-2.4,2.8-3.5,3.6c-1.2,0.8-2.2,1.2-3.2,1.2c-0.7,0-1.2-0.3-1.7-0.8c-0.5-0.6-0.7-1.3-0.7-2.1
		c0-2.2,1-4.6,3-7.2c2-2.6,4-3.9,5.9-3.9c0.7,0,1.2,0.4,1.6,1.2c0.1,0.3,0.3,0.4,0.5,0.4c0.7,0,1,0.3,1,0.8c0,0.3,0,0.6-0.1,1.1
		c-0.5,2.5-0.7,4.3-0.7,5.3c0,2,0.4,3.3,1.2,3.7c0.4,0.2,0.6,0.5,0.6,0.7c0,0.3-0.2,0.5-0.5,0.8c-0.4,0.3-0.7,0.4-1.1,0.4
		c-0.7,0-1.2-0.4-1.6-1.3C113.5,22.6,113.3,21.3,113.3,19.7z M112.5,12.5c-1.1,0-2.4,1-3.9,3.1c-1.5,2.1-2.2,3.8-2.2,5.2
		c0,1,0.3,1.5,1,1.5c0.9,0,2.2-0.9,3.9-2.8s2.5-3.6,2.5-5.2C113.7,13.1,113.3,12.5,112.5,12.5z"/>
	<path d="M129.3,18.5c0-0.2,0-0.3,0-0.3c-1.2,1.9-2.4,3.5-3.6,4.6c-1.2,1.1-2.3,1.7-3.3,1.7c-0.6,0-1.1-0.3-1.7-1
		c-0.6-0.7-0.9-1.7-0.9-3c0-1.1,0.3-2.7,0.8-4.9c0.4-1.8,0.7-3.1,0.7-3.8c0.2-0.5,0.6-0.8,1.2-0.8c0.4,0,0.6,0.1,0.9,0.4
		c0.2,0.2,0.3,0.5,0.3,0.8c0,0.6-0.2,1.4-0.6,2.5c-0.8,2.1-1.2,3.9-1.2,5.5c0,1.4,0.3,2.1,1,2.1c0.8,0,1.9-0.7,3.1-2.1
		s2.4-3.3,3.3-5.8c0.3-1,0.6-1.6,0.9-1.9c0.2-0.3,0.5-0.5,0.9-0.5h0.1c0.4,0,0.7,0.1,0.8,0.3s0.2,0.5,0.2,1.1c0,0.3-0.1,1-0.3,1.8
		c-0.6,2.5-0.9,4.9-1,7.4c0,0.2,0.1,0.4,0.3,0.4c0,0,0.1,0,0.1,0c0.4-0.2,0.8-0.4,1.1-0.4c0.6,0,0.9,0.3,1,1l0.1,0.8
		c0,0.8-0.3,2-0.8,3.4c-0.5,1.4-1.2,2.1-2.1,2.1c-0.2,0-0.4-0.1-0.4-0.4c0-0.2,0.2-0.9,0.5-2c0.4-1.1,0.5-1.9,0.5-2.3
		c0-0.3-0.1-0.5-0.2-0.5c0,0-0.2,0.1-0.6,0.2c-0.4,0.2-0.6,0.2-0.7,0.2c-0.4,0-0.8-0.1-0.9-0.4c-0.2-0.3-0.3-0.8-0.3-1.6
		C128.6,22.1,128.8,20.6,129.3,18.5z"/>
	<path d="M144.2,18.8c-1.1,1.8-2.2,3.2-3.3,4.2c-1.1,1-2.2,1.5-3.2,1.5c-0.6,0-1.1-0.3-1.7-1c-0.6-0.7-0.9-1.7-0.9-3
		c0-1.1,0.3-2.7,0.8-4.9c0.4-1.8,0.7-3.1,0.7-3.8c0.2-0.5,0.6-0.8,1.2-0.8c0.4,0,0.6,0.1,0.9,0.4c0.2,0.2,0.3,0.5,0.3,0.8
		c0,0.6-0.2,1.4-0.6,2.5c-0.8,2.1-1.2,3.9-1.2,5.5c0,1.4,0.3,2.1,1,2.1c0.8,0,1.9-0.7,3.1-2.1s2.4-3.3,3.3-5.8
		c0.4-1,0.6-1.6,0.9-1.9c0.2-0.3,0.5-0.5,0.9-0.5c0.6,0,0.9,0.4,0.9,1.1c0,0.1-0.1,0.4-0.2,0.9c-0.5,1.9-0.8,3.6-0.8,5.3
		c0,2,0.3,3.3,1,3.8c0.3,0.3,0.5,0.6,0.5,0.8c0,0.2-0.2,0.5-0.5,0.6s-0.7,0.3-0.9,0.3c-0.6,0-1.1-0.4-1.4-1.3
		c-0.4-0.9-0.5-2.2-0.5-3.9v-0.4C144.2,19,144.2,18.9,144.2,18.8z"/>
	<path d="M160.1,18.8c-1.1,1.8-2.2,3.2-3.3,4.2c-1.1,1-2.2,1.5-3.2,1.5c-0.6,0-1.1-0.3-1.7-1c-0.6-0.7-0.9-1.7-0.9-3
		c0-1.1,0.3-2.7,0.8-4.9c0.4-1.8,0.7-3.1,0.7-3.8c0.2-0.5,0.6-0.8,1.2-0.8c0.4,0,0.6,0.1,0.9,0.4c0.2,0.2,0.3,0.5,0.3,0.8
		c0,0.6-0.2,1.4-0.6,2.5c-0.8,2.1-1.2,3.9-1.2,5.5c0,1.4,0.3,2.1,1,2.1c0.8,0,1.9-0.7,3.1-2.1s2.4-3.3,3.3-5.8
		c0.4-1,0.6-1.6,0.9-1.9c0.2-0.3,0.5-0.5,0.9-0.5c0.6,0,0.9,0.4,0.9,1.1c0,0.1-0.1,0.4-0.2,0.9c-0.5,1.9-0.8,3.6-0.8,5.3
		c0,2,0.3,3.3,1,3.8c0.3,0.3,0.5,0.6,0.5,0.8c0,0.2-0.2,0.5-0.5,0.6s-0.7,0.3-0.9,0.3c-0.6,0-1.1-0.4-1.4-1.3
		c-0.4-0.9-0.5-2.2-0.5-3.9v-0.4C160.1,19,160.1,18.9,160.1,18.8z"/>
</g>
</svg>
