<?xml version="1.0" encoding="utf-8"?>
<!-- Generator: Adobe Illustrator 19.1.1, SVG Export Plug-In . SVG Version: 6.00 Build 0)  -->
<svg version="1.1" id="Слой_1" xmlns="http://www.w3.org/2000/svg" xmlns:xlink="http://www.w3.org/1999/xlink" x="0px" y="0px"
	 viewBox="-379 265 201 32" style="enable-background:new -379 265 201 32;" xml:space="preserve">
<g>
	<path d="M-364.2,280.9c0.1-0.2,0.2-1.2,0.4-3.2c0.2-1.6,0.6-2.3,1.5-2.3c0.7,0,1,0.3,1,1c0,0.2-0.1,0.5-0.2,1c-0.7,2.7-1,5-1,6.8
		c0,2,0.3,3.3,1,3.8c0.3,0.3,0.5,0.6,0.5,0.8c0,0.2-0.2,0.5-0.5,0.6c-0.3,0.1-0.7,0.3-0.9,0.3c-1.3,0-2-2-2-6.1
		c0-0.3-0.1-0.4-0.3-0.4c-0.8,0-1.8,0-2.9,0.1c-1.2,0.1-2,0.2-2.5,0.4c-0.5,0.2-0.8,0.3-0.9,0.4s-0.2,0.4-0.3,1
		c-0.1,0.6-0.1,1.1-0.1,1.6v1.6c0,0.9-0.4,1.4-1.2,1.4c-0.7,0-1-0.5-1-1.4c0-0.6,0.1-1.3,0.2-2.3c0.3-1.7,0.6-4.6,0.8-8.7
		c0-0.5,0.1-0.9,0.1-1c0.1-0.1,0.3-0.3,0.5-0.4c0.3-0.2,0.5-0.3,0.8-0.3c0.6,0,0.9,0.2,0.9,0.7c0,0.1-0.1,0.7-0.3,1.9
		c-0.2,1.2-0.3,2.1-0.3,2.8c0,0.5,0.2,0.7,0.5,0.7c0.6,0,1.8-0.1,3.5-0.3C-365.1,281.2-364.3,281-364.2,280.9z"/>
	<path d="M-349.7,284.6c-1.2,1.6-2.4,2.8-3.5,3.6c-1.2,0.8-2.2,1.2-3.2,1.2c-0.7,0-1.2-0.3-1.7-0.8c-0.5-0.6-0.7-1.3-0.7-2.1
		c0-2.2,1-4.6,3-7.2c2-2.6,4-3.9,5.9-3.9c0.7,0,1.2,0.4,1.6,1.2c0.1,0.3,0.3,0.4,0.5,0.4c0.7,0,1,0.3,1,0.8c0,0.3,0,0.6-0.1,1.1
		c-0.5,2.5-0.7,4.3-0.7,5.3c0,2,0.4,3.3,1.2,3.7c0.4,0.2,0.6,0.5,0.6,0.7c0,0.3-0.2,0.5-0.5,0.8c-0.4,0.3-0.7,0.4-1.1,0.4
		c-0.7,0-1.2-0.4-1.6-1.3C-349.5,287.5-349.7,286.2-349.7,284.6z M-350.5,277.4c-1.1,0-2.4,1-3.9,3.1s-2.2,3.8-2.2,5.2
		c0,1,0.3,1.5,1,1.5c0.9,0,2.2-0.9,3.9-2.8c1.7-1.9,2.5-3.6,2.5-5.2C-349.3,278-349.7,277.4-350.5,277.4z"/>
	<path d="M-323.9,279.4c-0.4,0-0.9,0.3-1.4,0.9c-0.5,0.6-1.3,1.9-2.4,3.9c-1.4,2.7-2.3,4.2-2.7,4.6c-0.4,0.4-0.8,0.6-1,0.6
		c-1,0-1.5-0.5-1.5-1.4c0-0.4,0.1-1,0.2-1.7c0.5-2.6,0.7-5.3,0.7-8.1c0-0.3,0.1-0.7,0.4-1.1c0.3-0.4,0.5-0.6,0.8-0.6
		c0.4,0,0.8,0.1,0.9,0.4c0.1,0.3,0.3,0.8,0.3,1.6c0,0.9-0.3,2.6-0.8,5.3c-0.2,0.9-0.3,1.4-0.3,1.7c0,0.1,0,0.2,0.1,0.2s0.7-1,1.8-3
		c1.1-2.1,2-3.5,2.8-4.3c0.8-0.8,1.7-1.3,2.6-1.3c0.8,0,1.4,0.3,1.9,1c0.5,0.7,0.8,2,1,3.8c0.2,2.1,0.5,3.4,0.6,3.9
		c0.2,0.5,0.5,0.8,0.9,0.8c0.3,0,0.6-0.1,1-0.3c0.1,0,0.1-0.1,0.2-0.1c0.4,0,0.5,0.2,0.5,0.6s-0.3,0.8-0.7,1.2
		c-0.4,0.4-1.1,0.6-1.8,0.6c-0.7,0-1.3-0.3-1.7-0.9s-0.7-2.1-0.9-4.6C-322.7,280.7-323.2,279.4-323.9,279.4z"/>
	<path d="M-308.2,278.8c-0.2,0-0.4,0.2-0.6,0.6c-1.8,3.5-3.1,5.9-4,7.1c-0.1,0.1-0.2,0.3-0.3,0.5c-1.1,1.9-1.8,2.8-2.3,2.8
		c-0.7,0-1-0.3-1-1c0-0.6,0.4-1.4,1.2-2.3c0.8-0.9,1.8-2.5,3.1-4.8c1.3-2.3,2.3-4.3,3.1-6c0.3-0.3,0.5-0.4,0.8-0.4
		c0.1,0,0.4,0.1,0.7,0.2s0.5,0.2,0.6,0.4c0.1,0.2,0.3,0.9,0.6,2.4c1,5.2,2.1,8.3,3.3,9.2c0.3,0.2,0.4,0.4,0.5,0.5s0.1,0.2,0.1,0.3
		c0,0.3-0.1,0.5-0.3,0.7c-0.2,0.2-0.3,0.3-0.5,0.3c-0.2,0-0.5,0.1-1,0.1c-0.2,0-0.6-0.4-1.2-1.3s-1.4-3.3-2.3-7.2
		C-307.9,279.9-308.1,279.2-308.2,278.8z"/>
	<path d="M-291.3,284.6c-1.2,1.6-2.4,2.8-3.5,3.6c-1.1,0.8-2.2,1.1-3.2,1.1c-0.7,0-1.2-0.3-1.7-0.8s-0.7-1.3-0.7-2.1
		c0-2.2,1-4.6,3-7.2s4-3.9,5.9-3.9c0.7,0,1.2,0.4,1.6,1.2c0.1,0.3,0.3,0.4,0.5,0.4c0.7,0,1,0.3,1,0.8c0,0.3,0,0.6-0.1,1.1
		c-0.5,2.5-0.7,4.3-0.7,5.3c0,2,0.4,3.3,1.2,3.7c0.4,0.2,0.6,0.5,0.6,0.7c0,0.3-0.2,0.5-0.5,0.8c-0.3,0.3-0.7,0.4-1.1,0.4
		c-0.7,0-1.2-0.4-1.6-1.3C-291,287.5-291.3,286.2-291.3,284.6z M-292,277.4c-1.1,0-2.4,1-3.9,3.1s-2.2,3.8-2.2,5.2
		c0,1,0.3,1.5,1,1.5c0.9,0,2.2-0.9,3.9-2.8c1.7-1.9,2.5-3.6,2.5-5.2C-290.8,278-291.2,277.4-292,277.4z"/>
	<path d="M-275.2,280.9c0.1-0.2,0.2-1.2,0.4-3.2c0.2-1.6,0.6-2.3,1.5-2.3c0.7,0,1,0.3,1,1c0,0.2-0.1,0.5-0.2,1c-0.7,2.7-1,5-1,6.8
		c0,2,0.3,3.3,1,3.8c0.3,0.3,0.5,0.6,0.5,0.8c0,0.2-0.2,0.5-0.5,0.6c-0.3,0.2-0.7,0.3-0.9,0.3c-1.3,0-2-2-2-6.1
		c0-0.3-0.1-0.4-0.3-0.4c-0.8,0-1.8,0-2.9,0.1c-1.1,0.1-2,0.2-2.5,0.4c-0.5,0.1-0.8,0.3-0.9,0.4s-0.2,0.4-0.3,1
		c-0.1,0.5-0.1,1.1-0.1,1.6v1.6c0,0.9-0.4,1.4-1.2,1.4c-0.7,0-1-0.5-1-1.4c0-0.6,0.1-1.3,0.2-2.3c0.3-1.7,0.6-4.6,0.8-8.7
		c0-0.5,0.1-0.9,0.1-1s0.2-0.3,0.5-0.5c0.3-0.2,0.5-0.3,0.8-0.3c0.6,0,0.9,0.2,0.9,0.7c0,0.1-0.1,0.7-0.3,1.9
		c-0.2,1.2-0.3,2.1-0.3,2.8c0,0.5,0.2,0.7,0.5,0.7c0.6,0,1.8-0.1,3.5-0.3C-276.2,281.1-275.3,281-275.2,280.9z"/>
	<path d="M-259.7,279.1c-0.8,0-2.5,2.3-5.1,7c-0.9,1.6-1.4,2.4-1.5,2.6c-0.1,0.2-0.4,0.3-0.8,0.4s-0.7,0.2-1,0.2
		c-0.6,0-0.9-1.1-0.9-3.3c0-1.2,0.3-3.5,0.8-6.8c0.2-1.3,0.3-2.3,0.3-2.8c0-0.6,0.3-0.8,0.7-0.8c0.9,0,1.4,0.7,1.4,2
		c0,0.6-0.2,1.9-0.5,3.7c-0.4,2.1-0.5,3.4-0.6,3.9c0.5-0.5,1.3-1.6,2.3-3.3c1.4-2.4,2.5-3.8,3.2-4.5c0.7-0.6,1.4-0.9,2.1-0.9
		c0.5,0,1,0.4,1.3,1.1c0.3,0.7,0.5,2.5,0.6,5.3c0,0.7,0.1,1.2,0.2,1.5c0.1,0.3,0.2,0.5,0.2,0.5c0.4,0,1.3-1.4,2.6-4.1
		c0.7-1.4,1.4-2.5,2.1-3.3c0.7-0.7,1.4-1.1,2.2-1.1c0.7,0,1.2,0.4,1.5,1.1c0.3,0.7,0.5,1.8,0.7,3.1c0.1,1.4,0.3,2.7,0.6,3.9
		c0.3,1.2,0.8,1.9,1.5,2.2c0.5,0.2,0.7,0.5,0.7,0.8c0,0.3-0.2,0.6-0.6,0.9c-0.4,0.3-0.8,0.5-1.1,0.5c-0.7,0-1.3-0.4-1.8-1.2
		c-0.5-0.8-0.9-2.6-1.2-5.4c-0.1-1.1-0.2-1.9-0.3-2.4s-0.3-0.7-0.5-0.7c-0.4,0-0.8,0.3-1.3,1c-0.5,0.7-1.3,2.1-2.4,4.1
		c-0.8,1.6-1.5,2.7-1.9,3.2c-0.4,0.5-0.9,0.8-1.3,0.8s-0.7-0.1-1-0.4c-0.3-0.3-0.5-0.6-0.5-1.1s-0.2-1.4-0.2-3
		C-259.1,281.1-259.3,279.6-259.7,279.1z"/>
	<path d="M-234,284.6c-1.2,1.6-2.4,2.8-3.5,3.6c-1.1,0.8-2.2,1.2-3.2,1.2c-0.7,0-1.2-0.3-1.7-0.8s-0.7-1.3-0.7-2.1
		c0-2.2,1-4.6,3-7.2c2-2.6,4-3.9,5.9-3.9c0.7,0,1.2,0.4,1.6,1.2c0.1,0.3,0.3,0.4,0.5,0.4c0.7,0,1,0.3,1,0.8c0,0.3,0,0.6-0.1,1.1
		c-0.5,2.5-0.7,4.3-0.7,5.3c0,2,0.4,3.3,1.2,3.7c0.4,0.2,0.6,0.5,0.6,0.7c0,0.3-0.2,0.5-0.5,0.8c-0.3,0.3-0.7,0.4-1.1,0.4
		c-0.7,0-1.2-0.4-1.6-1.3C-233.7,287.6-234,286.2-234,284.6z M-234.8,277.4c-1.1,0-2.4,1-3.9,3.1s-2.2,3.8-2.2,5.2
		c0,1,0.3,1.5,1,1.5c0.9,0,2.2-0.9,3.9-2.8c1.7-1.9,2.5-3.6,2.5-5.2C-233.6,278-234,277.4-234.8,277.4z"/>
	<path d="M-218,283.4c0-0.2,0-0.3,0-0.3c-1.2,1.9-2.4,3.5-3.6,4.6s-2.3,1.7-3.3,1.7c-0.6,0-1.1-0.3-1.7-1c-0.6-0.7-0.9-1.7-0.9-3
		c0-1.1,0.3-2.7,0.8-4.9c0.4-1.8,0.7-3.1,0.7-3.8c0.2-0.5,0.6-0.8,1.2-0.8c0.4,0,0.6,0.1,0.9,0.4c0.3,0.3,0.3,0.5,0.3,0.8
		c0,0.6-0.2,1.4-0.6,2.5c-0.8,2.1-1.2,3.9-1.2,5.5c0,1.4,0.3,2.1,1,2.1c0.8,0,1.9-0.7,3.1-2.1s2.4-3.3,3.3-5.8
		c0.3-1,0.6-1.6,0.9-1.9c0.3-0.3,0.5-0.5,0.9-0.5h0.1c0.4,0,0.7,0.1,0.8,0.3s0.2,0.5,0.2,1.1c0,0.3-0.1,1-0.3,1.8
		c-0.6,2.5-0.9,4.9-1,7.4c0,0.2,0.1,0.4,0.3,0.4h0.1c0.4-0.2,0.8-0.4,1.1-0.4c0.6,0,0.9,0.3,1,1l0.1,0.8c0,0.8-0.3,2-0.8,3.4
		s-1.2,2.1-2.1,2.1c-0.2,0-0.4-0.1-0.4-0.4c0-0.2,0.2-0.9,0.5-2c0.4-1.1,0.5-1.9,0.5-2.3c0-0.3-0.1-0.5-0.2-0.5c0,0-0.2,0.1-0.6,0.2
		s-0.6,0.2-0.7,0.2c-0.4,0-0.8-0.1-0.9-0.4c-0.1-0.3-0.3-0.8-0.3-1.6C-218.7,287-218.5,285.5-218,283.4z"/>
	<path d="M-203.1,283.7c-1.1,1.8-2.2,3.2-3.3,4.2s-2.2,1.5-3.2,1.5c-0.6,0-1.1-0.3-1.7-1c-0.6-0.7-0.9-1.7-0.9-3
		c0-1.1,0.3-2.7,0.8-4.9c0.4-1.8,0.7-3.1,0.7-3.8c0.2-0.5,0.6-0.8,1.2-0.8c0.4,0,0.6,0.1,0.9,0.4c0.3,0.3,0.3,0.5,0.3,0.8
		c0,0.6-0.2,1.4-0.6,2.5c-0.8,2.1-1.2,3.9-1.2,5.5c0,1.4,0.3,2.1,1,2.1c0.8,0,1.9-0.7,3.1-2.1s2.4-3.3,3.3-5.8
		c0.4-1,0.6-1.6,0.9-1.9c0.2-0.3,0.5-0.5,0.9-0.5c0.6,0,0.9,0.4,0.9,1.1c0,0.1-0.1,0.4-0.2,0.9c-0.5,1.9-0.8,3.6-0.8,5.3
		c0,2,0.3,3.3,1,3.8c0.3,0.3,0.5,0.6,0.5,0.8c0,0.2-0.2,0.5-0.5,0.6c-0.3,0.2-0.7,0.3-0.9,0.3c-0.6,0-1.1-0.4-1.4-1.3
		c-0.3-0.9-0.5-2.2-0.5-3.9v-0.4C-203.1,283.9-203.1,283.8-203.1,283.7z"/>
	<path d="M-187.2,283.7c-1.1,1.8-2.2,3.2-3.3,4.2s-2.2,1.5-3.2,1.5c-0.6,0-1.1-0.3-1.7-1c-0.6-0.7-0.9-1.7-0.9-3
		c0-1.1,0.3-2.7,0.8-4.9c0.4-1.8,0.7-3.1,0.7-3.8c0.2-0.5,0.6-0.8,1.2-0.8c0.4,0,0.6,0.1,0.9,0.4c0.3,0.3,0.3,0.5,0.3,0.8
		c0,0.6-0.2,1.4-0.6,2.5c-0.8,2.1-1.2,3.9-1.2,5.5c0,1.4,0.3,2.1,1,2.1c0.8,0,1.9-0.7,3.1-2.1s2.4-3.3,3.3-5.8
		c0.4-1,0.6-1.6,0.9-1.9c0.2-0.3,0.5-0.5,0.9-0.5c0.6,0,0.9,0.4,0.9,1.1c0,0.1-0.1,0.4-0.2,0.9c-0.5,1.9-0.8,3.6-0.8,5.3
		c0,2,0.3,3.3,1,3.8c0.3,0.3,0.5,0.6,0.5,0.8c0,0.2-0.2,0.5-0.5,0.6c-0.3,0.2-0.7,0.3-0.9,0.3c-0.6,0-1.1-0.4-1.4-1.3
		c-0.3-0.9-0.5-2.2-0.5-3.9v-0.4C-187.2,283.9-187.2,283.8-187.2,283.7z"/>
</g>
</svg>
